{"title":"The Sleeper 2012 DVDRiP.XViD.AC3-ART3MiS","uid":6995759,"size":1364083583,"categoryP":"video","categoryS":"movies","magnet":"?xt=urn:btih:53b2b8b558a69a590d736a9d1290ba05918650fc&amp;dn=The+Sleeper+2012+DVDRiP.XViD.AC3-ART3MiS&amp;tr=udp%3A%2F%2Ftracker.openbittorrent.com%3A80&amp;tr=udp%3A%2F%2Fopen.demonii.com%3A1337&amp;tr=udp%3A%2F%2Ftracker.coppersurfer.tk%3A6969&amp;tr=udp%3A%2F%2Fexodus.desync.com%3A6969","seeders":2,"leechers":0,"uploader":"HeroMaster","files":-1,"time":1327875286,"description":"The Sleeper 2012 DVDRiP.XViD.AC3-ART3MiS\n\nIMDB Link: &lt;a href=&quot;\nhttp://www.imdb.com/title/tt1971558/&quot; rel=&quot;nofollow&quot; target=&quot;_NEW&quot;&gt;\nhttp://www.imdb.com/title/tt1971558/&lt;/a&gt;\n\nDescription:\nIt's 1981 and the girls of Alpha Gamma Theta sorority are having a party. As \nthe new pledges arrive, so does an uninvited guest. Little do the sisters know someone is watching them in the shadows. As the girls shower, study, eat and \nsleep the stalker studies the girls. One by one he finds the girls at their \nmost vulnerable and murders them. The police hunt for the missing girls and \ntheir killer, but will they find them in time? Or will the girls be forced to fight for their lives...  \n\nMediaInfo:\nGeneral\nFormat                           : AVI\nFormat/Info                      : Audio Video Interleave\nFile size                        : 1.27 GiB\nDuration                         : 1h 29mn\nOverall bit rate                 : 2 031 Kbps\n\nVideo\nID                               : 0\nFormat                           : MPEG-4 Visual\nFormat profile                   : Advanced Simple@L5\nFormat settings, BVOP            : 1\nFormat settings, QPel            : No\nFormat settings, GMC             : No warppoints\nFormat settings, Matrix          : Default (H.263)\nCodec ID                         : XVID\nCodec ID/Hint                    : XviD\nDuration                         : 1h 29mn\nBit rate                         : 1 926 Kbps\nWidth                            : 720 pixels\nHeight                           : 400 pixels\nDisplay aspect ratio             : 16:9\nFrame rate                       : 23.976 fps\nColor space                      : YUV\nChroma subsampling               : 4:2:0\nBit depth                        : 8 bits\nScan type                        : Progressive\nCompression mode                 : Lossy\nBits/(Pixel*Frame)               : 0.279\nStream size                      : 1.20 GiB (85%)\nWriting library                  : XviD 1.2.1 (UTC 2008-12-04)\n\nAudio\nID                               : 1\nFormat                           : AC-3\nFormat/Info                      : Audio Coding 3\nMode extension                   : CM (complete main)\nCodec ID                         : 2000\nDuration                         : 1h 29mn\nBit rate mode                    : Constant\nBit rate                         : 320 Kbps\nChannel(s)                       : 2 channels\nChannel positions                : Front: L R\nSampling rate                    : 48.0 KHz\nBit depth                        : 16 bits\nCompression mode                 : Lossy\nStream size                      : 204 MiB (14%)\nAlignment                        : Aligned on interleaves\nInterleave, duration             : 64 ms (1.53 video frames)\nInterleave, preload duration     : 192 ms\n\n\nPoster:\n\n &lt;a href=&quot;\nhttp://i.imgur.com/zs9Ic.jpg&quot; rel=&quot;nofollow&quot; target=&quot;_NEW&quot;&gt;\nhttp://i.imgur.com/zs9Ic.jpg&lt;/a&gt;\n\n\nScreenshots:\n\n &lt;a href=&quot;\nhttp://i.imgur.com/IrTK4.jpg&quot; rel=&quot;nofollow&quot; target=&quot;_NEW&quot;&gt;\nhttp://i.imgur.com/IrTK4.jpg&lt;/a&gt;\n\n\nENJOY!","torrent":{"xt":"urn:btih:53b2b8b558a69a590d736a9d1290ba05918650fc","amp;dn":"The+Sleeper+2012+DVDRiP.XViD.AC3-ART3MiS","amp;tr":["udp%3A%2F%2Ftracker.openbittorrent.com%3A80","udp%3A%2F%2Fopen.demonii.com%3A1337","udp%3A%2F%2Ftracker.coppersurfer.tk%3A6969","udp%3A%2F%2Fexodus.desync.com%3A6969"],"infoHash":"53b2b8b558a69a590d736a9d1290ba05918650fc","infoHashBuffer":{"type":"Buffer","data":[83,178,184,181,88,166,154,89,13,115,106,157,18,144,186,5,145,134,80,252]},"announce":[],"urlList":[]}}